<svg width="15" height="15" viewBox="0 0 15 15" fill="none" xmlns="http://www.w3.org/2000/svg">
<path d="M7.47068 3.61914C9.56248 3.61914 11.289 5.3457 11.289 7.4375C11.289 9.5625 9.56248 11.2559 7.47068 11.2559C5.34568 11.2559 3.65232 9.5625 3.65232 7.4375C3.65232 5.3457 5.34568 3.61914 7.47068 3.61914ZM7.47068 9.92773C8.83201 9.92773 9.92771 8.83203 9.92771 7.4375C9.92771 6.07617 8.83201 4.98047 7.47068 4.98047C6.07615 4.98047 4.98045 6.07617 4.98045 7.4375C4.98045 8.83203 6.10935 9.92773 7.47068 9.92773ZM12.3183 3.48633C12.3183 3.98438 11.9199 4.38281 11.4219 4.38281C10.9238 4.38281 10.5254 3.98438 10.5254 3.48633C10.5254 2.98828 10.9238 2.58984 11.4219 2.58984C11.9199 2.58984 12.3183 2.98828 12.3183 3.48633ZM14.8418 4.38281C14.9082 5.61133 14.9082 9.29688 14.8418 10.5254C14.7754 11.7207 14.5097 12.75 13.6465 13.6465C12.7832 14.5098 11.7207 14.7754 10.5254 14.8418C9.29685 14.9082 5.61131 14.9082 4.38279 14.8418C3.18748 14.7754 2.15818 14.5098 1.2617 13.6465C0.398417 12.75 0.132792 11.7207 0.0663862 10.5254C-2.00272e-05 9.29688 -2.00272e-05 5.61133 0.0663862 4.38281C0.132792 3.1875 0.398417 2.125 1.2617 1.26172C2.15818 0.398438 3.18748 0.132812 4.38279 0.0664062C5.61131 0 9.29685 0 10.5254 0.0664062C11.7207 0.132812 12.7832 0.398438 13.6465 1.26172C14.5097 2.125 14.7754 3.1875 14.8418 4.38281ZM13.248 11.8203C13.6465 10.8574 13.5469 8.5332 13.5469 7.4375C13.5469 6.375 13.6465 4.05078 13.248 3.05469C12.9824 2.42383 12.4844 1.89258 11.8535 1.66016C10.8574 1.26172 8.53318 1.36133 7.47068 1.36133C6.37498 1.36133 4.05076 1.26172 3.08787 1.66016C2.42381 1.92578 1.92576 2.42383 1.66014 3.05469C1.2617 4.05078 1.36131 6.375 1.36131 7.4375C1.36131 8.5332 1.2617 10.8574 1.66014 11.8203C1.92576 12.4844 2.42381 12.9824 3.08787 13.248C4.05076 13.6465 6.37498 13.5469 7.47068 13.5469C8.53318 13.5469 10.8574 13.6465 11.8535 13.248C12.4844 12.9824 13.0156 12.4844 13.248 11.8203Z" fill="#00BEAE"/>
<a href="https://www.figma.com/design/Nx4sNsAeWJfmVVOXuDSmxJ?node-id=2-2093">
<rect fill="black" fill-opacity="0" x="0.18925" y="-1.275" width="14.875" height="19.55"/>
</a>
</svg>
