<svg width="13" height="17" viewBox="0 0 13 17" fill="none" xmlns="http://www.w3.org/2000/svg">
<path d="M6.77341 0C9.89451 0 12.75 2.1582 12.75 5.44531C12.75 8.5332 11.1562 11.9863 7.63669 11.9863C6.77341 11.9863 5.74412 11.5547 5.31248 10.791C4.58201 13.7793 4.61521 14.2441 2.95505 16.5352C2.78904 16.6016 2.82224 16.6016 2.72263 16.4688C2.65623 15.8379 2.58982 15.2402 2.58982 14.6094C2.58982 12.584 3.51951 9.62891 3.98435 7.66992C3.71873 7.13867 3.65232 6.54102 3.65232 5.97656C3.65232 3.32031 6.77341 2.92188 6.77341 5.11328C6.77341 6.4082 5.87693 7.63672 5.87693 8.89844C5.87693 9.72852 6.6074 10.3262 7.43748 10.3262C9.72849 10.3262 10.4258 7.03906 10.4258 5.2793C10.4258 2.92188 8.7656 1.62695 6.47459 1.62695C3.85154 1.62695 1.82615 3.51953 1.82615 6.17578C1.82615 7.4707 2.62302 8.13477 2.62302 8.43359C2.62302 8.69922 2.4238 9.5957 2.09177 9.5957C1.2949 9.5957 -2.43187e-05 8.26758 -2.43187e-05 5.94336C-2.43187e-05 2.25781 3.35349 0 6.77341 0Z" fill="#00BEAE"/>
<a href="https://www.figma.com/design/Nx4sNsAeWJfmVVOXuDSmxJ?node-id=2-2093">
<rect fill="black" fill-opacity="0" x="0.173438" y="-1.275" width="12.75" height="19.55"/>
</a>
</svg>
