<svg width="17" height="14" viewBox="0 0 17 14" fill="none" xmlns="http://www.w3.org/2000/svg">
<path d="M15.2402 3.41992C15.2402 3.58594 15.2402 3.71875 15.2402 3.88477C15.2402 8.5 11.7539 13.7793 5.34569 13.7793C3.3535 13.7793 1.52733 13.2148 -1.14441e-05 12.2188C0.265614 12.252 0.531239 12.2852 0.830067 12.2852C2.45702 12.2852 3.95116 11.7207 5.14647 10.791C3.61913 10.7578 2.32421 9.76172 1.89257 8.36719C2.12499 8.40039 2.32421 8.43359 2.55663 8.43359C2.85546 8.43359 3.18749 8.36719 3.45311 8.30078C1.85936 7.96875 0.664051 6.57422 0.664051 4.88086V4.84766C1.12889 5.11328 1.69335 5.24609 2.2578 5.2793C1.29491 4.64844 0.697254 3.58594 0.697254 2.39062C0.697254 1.72656 0.86327 1.12891 1.1621 0.630859C2.88866 2.72266 5.4785 4.11719 8.36718 4.2832C8.30077 4.01758 8.26757 3.75195 8.26757 3.48633C8.26757 1.56055 9.82811 0 11.7539 0C12.75 0 13.6465 0.398438 14.3105 1.0957C15.0742 0.929688 15.8379 0.630859 16.5019 0.232422C16.2363 1.0625 15.7051 1.72656 14.9746 2.1582C15.6719 2.0918 16.3691 1.89258 16.9668 1.62695C16.5019 2.32422 15.9043 2.92188 15.2402 3.41992Z" fill="#00BEAE"/>
<a href="https://www.figma.com/design/Nx4sNsAeWJfmVVOXuDSmxJ?node-id=2-2093">
<rect fill="black" fill-opacity="0" x="0.200001" y="-1.275" width="17" height="19.55"/>
</a>
</svg>
